<?xml version="1.0" standalone="no"?>
<!DOCTYPE svg PUBLIC "-//W3C//DTD SVG 20010904//EN"
 "http://www.w3.org/TR/2001/REC-SVG-20010904/DTD/svg10.dtd">
<svg version="1.0" xmlns="http://www.w3.org/2000/svg"
 width="5448.000000pt" height="3923.000000pt" viewBox="0 0 5448.000000 3923.000000"
 preserveAspectRatio="xMidYMid meet">

<g transform="translate(0.000000,3923.000000) scale(0.100000,-0.100000)"
fill="#000000" stroke="none">
<path d="M34195 39214 c-1091 -59 -2082 -361 -2859 -871 -226 -148 -398 -285
-576 -458 -62 -61 -143 -125 -235 -185 -77 -51 -176 -121 -220 -155 -121 -95
-398 -383 -498 -517 -47 -64 -118 -151 -158 -192 -66 -70 -106 -103 -281 -232
l-68 -49 0 -62 0 -63 -39 0 c-36 0 -45 -6 -101 -67 -108 -118 -169 -221 -185
-311 -7 -42 -7 -42 -50 -42 -43 0 -43 -1 -121 -102 -44 -57 -135 -170 -204
-253 -180 -215 -234 -304 -275 -445 l-22 -75 -41 -3 -41 -3 -60 -110 c-88
-159 -255 -404 -326 -479 -72 -76 -98 -115 -144 -225 -58 -136 -139 -291 -230
-444 -103 -170 -130 -222 -172 -328 -17 -43 -59 -125 -93 -183 -47 -79 -70
-130 -90 -205 -16 -55 -35 -111 -43 -123 -18 -29 -61 -48 -128 -57 -27 -4
-130 -29 -229 -56 -98 -28 -537 -139 -976 -249 -438 -109 -866 -221 -952 -249
-217 -71 -421 -122 -738 -186 -151 -30 -275 -55 -277 -55 -2 0 -3 -18 -3 -40
0 -22 -2 -40 -4 -40 -2 0 -20 7 -39 15 -52 22 -76 20 -295 -25 -108 -23 -300
-59 -426 -80 -126 -22 -232 -42 -235 -46 -3 -3 -15 -30 -26 -60 l-20 -55 -125
-5 c-207 -7 -419 -49 -594 -119 -171 -67 -364 -106 -721 -145 -104 -11 -199
-22 -211 -25 -12 -3 -28 -21 -39 -45 -14 -32 -26 -42 -54 -50 -95 -25 -232
-55 -516 -115 -358 -76 -600 -136 -804 -200 -190 -59 -402 -107 -636 -145
-428 -68 -423 -67 -457 -106 -17 -19 -43 -41 -58 -49 -15 -8 -191 -37 -391
-64 -200 -28 -379 -54 -398 -57 l-34 -5 37 -38 c20 -20 36 -40 36 -44 0 -4
-18 -7 -40 -7 -120 0 -523 -72 -810 -145 -351 -89 -598 -135 -925 -170 -101
-11 -96 -5 -73 -91 10 -42 16 -79 13 -83 -4 -3 -34 -13 -68 -23 -61 -16 -57
-16 283 -17 190 0 2741 8 5670 19 2929 11 5429 20 5557 20 l231 0 115 223
c107 209 213 408 434 817 52 96 116 205 143 241 86 119 110 172 137 304 8 38
10 40 53 45 l44 5 161 240 c175 263 263 383 469 640 92 115 152 201 186 266
l49 96 61 18 62 19 43 86 43 86 61 19 c58 17 61 20 75 64 8 25 18 63 22 84 6
36 8 37 48 37 71 0 163 73 313 248 110 129 219 224 304 268 47 23 49 26 49 67
l0 43 62 12 c83 15 106 34 153 124 l39 77 86 21 c47 12 103 29 125 39 63 28
222 128 320 202 58 43 119 79 170 99 44 17 123 54 175 82 244 130 303 159 410
202 129 51 268 92 575 171 379 98 570 127 962 147 592 30 1221 -57 1788 -247
462 -155 927 -400 1279 -674 96 -76 177 -122 259 -150 50 -17 52 -19 57 -61
l5 -43 100 -41 100 -41 5 -47 c7 -55 13 -63 146 -178 120 -103 198 -158 288
-201 64 -31 66 -32 105 -115 35 -72 58 -102 173 -222 285 -295 669 -794 816
-1058 49 -88 49 -89 93 -94 l44 -5 3 -48 c3 -42 15 -65 88 -173 203 -298 534
-833 614 -994 24 -47 64 -134 91 -193 26 -59 100 -206 164 -326 220 -416 335
-676 702 -1591 339 -847 369 -931 543 -1520 194 -658 290 -1043 464 -1855 101
-473 127 -627 146 -890 12 -160 28 -237 69 -338 42 -103 47 -123 85 -412 69
-518 105 -880 180 -1795 53 -650 65 -807 87 -1175 6 -99 13 -603 16 -1120 9
-1739 -24 -2280 -253 -4135 -67 -548 -66 -543 -147 -735 -21 -49 -29 -93 -41
-238 -20 -227 -47 -411 -97 -662 -101 -508 -240 -1084 -364 -1515 -139 -483
-240 -775 -475 -1370 -92 -234 -211 -537 -264 -675 -54 -137 -151 -378 -216
-535 -65 -157 -146 -355 -180 -440 -138 -348 -322 -739 -506 -1077 -273 -500
-696 -1155 -993 -1537 -148 -189 -194 -268 -209 -358 -7 -43 -8 -43 -52 -46
-44 -4 -47 -6 -150 -129 -58 -69 -191 -211 -296 -317 -187 -188 -258 -275
-285 -348 -12 -36 -15 -38 -59 -38 -43 0 -49 -4 -110 -65 -36 -36 -87 -80
-115 -98 -110 -69 -203 -144 -330 -267 -133 -127 -134 -128 -287 -203 -143
-70 -157 -80 -214 -144 -53 -60 -79 -78 -195 -140 -346 -185 -563 -280 -841
-367 -81 -26 -181 -62 -221 -80 -172 -79 -349 -121 -677 -161 -113 -14 -239
-32 -280 -41 -58 -12 -164 -17 -458 -21 l-384 -5 -56 25 c-41 19 -114 34 -267
57 -307 45 -388 67 -850 223 -192 65 -245 88 -615 275 -223 112 -436 222 -475
245 -131 75 -320 211 -403 289 -45 43 -129 109 -186 147 -132 89 -271 200
-416 333 -127 116 -608 610 -710 728 -123 144 -301 372 -369 473 -71 106 -161
265 -161 285 0 6 15 13 33 16 230 38 320 56 547 111 146 36 344 81 440 100
194 40 314 69 590 145 163 44 757 178 2105 475 485 107 528 119 583 161 24 18
62 40 85 48 23 9 188 38 367 66 179 28 335 52 348 55 18 4 22 12 22 44 l0 39
73 6 c387 30 425 37 597 101 158 59 280 87 591 139 158 26 311 58 380 79 173
52 352 91 704 151 176 30 332 59 347 65 15 6 34 21 43 35 33 49 61 59 221 72
159 13 202 26 267 80 l29 24 -5666 0 -5666 0 0 -105 c0 -97 2 -106 24 -128 14
-14 30 -44 36 -68 56 -218 254 -750 578 -1549 207 -510 227 -554 421 -913 54
-100 193 -367 308 -592 410 -802 757 -1362 1253 -2025 161 -215 733 -932 771
-967 14 -13 41 -23 64 -25 39 -3 40 -4 43 -46 3 -42 4 -42 41 -42 38 0 39 0
46 -47 6 -39 16 -55 68 -107 33 -34 101 -108 151 -166 144 -166 221 -244 309
-312 45 -35 145 -124 223 -199 184 -178 324 -275 457 -318 35 -12 37 -15 37
-55 0 -41 2 -44 88 -109 127 -96 229 -155 487 -282 164 -81 252 -118 308 -131
73 -17 79 -20 100 -58 27 -50 50 -63 256 -148 635 -265 911 -359 1298 -442
128 -28 171 -42 205 -65 28 -20 65 -34 108 -41 99 -17 1104 -25 1330 -11 359
23 617 77 957 202 l112 41 21 64 22 64 84 0 c82 0 87 1 142 39 32 21 153 86
269 145 l212 106 3 42 3 43 55 6 c136 15 250 87 428 270 117 121 139 139 192
158 68 25 98 56 131 135 l23 56 65 0 66 0 95 72 c308 232 570 507 663 695 31
62 32 63 72 63 39 0 42 3 142 128 56 70 176 204 266 298 172 181 221 253 246
360 12 49 13 51 87 87 97 48 143 91 283 267 136 169 202 272 241 373 l28 72
44 5 c52 6 68 22 178 179 117 168 162 261 184 385 l11 60 62 20 61 19 25 66
c14 36 33 92 41 123 l17 58 43 0 43 0 36 79 c35 76 69 174 82 234 5 24 10 27
48 27 l42 0 74 133 c97 172 560 1081 621 1218 49 108 95 238 149 415 17 55 46
129 66 165 86 156 137 266 205 439 40 102 119 300 175 440 57 141 128 337 159
435 31 99 156 480 276 846 121 367 245 756 275 865 117 416 265 1016 405 1634
39 173 95 416 125 540 118 494 174 806 270 1525 14 105 42 260 64 345 52 206
68 304 91 560 30 323 47 465 95 805 54 373 80 631 95 905 13 262 15 275 61
521 80 432 87 539 96 1375 5 501 3 655 -7 705 -9 49 -11 205 -9 664 11 1671
-1 2025 -102 3130 -37 406 -49 487 -95 612 -63 172 -64 177 -74 418 -12 293
-17 344 -42 414 -19 55 -33 171 -93 741 -39 376 -41 386 -89 449 l-41 54 -6
176 c-4 97 -14 214 -23 261 -10 47 -55 281 -102 520 -91 463 -119 591 -183
824 -22 81 -63 253 -91 384 -223 1038 -372 1602 -556 2099 -108 293 -123 340
-169 528 -61 253 -95 359 -266 838 -469 1312 -810 2104 -1221 2837 -134 239
-577 998 -765 1310 -482 802 -865 1341 -1288 1815 -58 66 -179 210 -268 320
-244 301 -384 432 -563 528 -77 41 -79 43 -82 82 -2 22 -8 45 -14 52 -44 53
-420 310 -668 456 -80 47 -163 99 -185 115 -69 52 -310 181 -463 249 -475 211
-961 333 -1556 388 -156 15 -658 27 -801 19z"/>
<path d="M43720 39213 c1 -42 45 -476 66 -649 32 -258 32 -259 -54 -332 -30
-26 -73 -75 -96 -109 -32 -46 -67 -80 -141 -134 -55 -39 -174 -133 -265 -207
-91 -75 -221 -181 -289 -236 -136 -110 -212 -194 -248 -273 -22 -51 -24 -53
-64 -53 -38 0 -47 -6 -147 -104 -125 -121 -385 -330 -527 -424 -194 -128 -235
-172 -235 -251 0 -52 5 -62 136 -253 61 -90 136 -224 231 -413 78 -154 170
-323 205 -375 80 -122 174 -215 267 -264 l72 -38 62 59 c71 68 160 129 331
227 79 46 151 98 218 158 112 101 183 150 281 193 66 30 66 30 67 71 0 44 10
54 53 54 48 0 129 51 220 137 81 77 105 94 199 137 l107 48 3 42 3 41 56 6
c49 5 178 61 260 112 32 20 53 85 51 153 -4 159 -169 1371 -252 1864 -62 363
-89 486 -130 583 -56 134 -131 179 -270 161 l-50 -7 0 42 0 41 -60 0 c-33 0
-60 -3 -60 -7z"/>
<path d="M39071 39140 c28 -49 59 -74 339 -270 333 -233 601 -440 795 -615
112 -101 208 -172 282 -208 62 -31 63 -32 63 -73 0 -38 3 -43 33 -55 17 -7
118 -97 222 -199 171 -168 315 -288 416 -349 l37 -21 93 76 c52 42 155 136
229 209 114 112 143 135 186 149 61 20 93 52 131 131 28 59 30 60 74 65 58 7
67 14 309 241 107 100 256 234 330 297 212 182 227 197 251 269 20 60 22 63
52 63 18 0 51 11 75 25 57 32 223 175 217 186 -15 24 -125 78 -170 83 -28 4
-655 10 -1395 16 -740 5 -1626 13 -1969 16 l-624 7 24 -43z"/>
<path d="M45470 39062 c0 -52 17 -103 44 -133 35 -40 204 -180 275 -228 34
-24 89 -56 122 -72 58 -29 59 -30 59 -72 0 -41 2 -43 95 -115 51 -41 158 -134
237 -209 200 -190 233 -213 294 -213 39 0 65 9 126 43 98 53 411 278 401 288
-5 3 -32 14 -60 24 -53 17 -53 17 -53 58 0 41 -1 43 -63 76 -180 98 -377 193
-502 240 -230 88 -537 199 -762 277 l-213 74 0 -38z"/>
<path d="M44720 38837 c0 -6 34 -247 75 -536 89 -631 171 -1235 219 -1616 39
-309 116 -987 116 -1022 0 -17 -35 -43 -172 -129 -95 -59 -226 -143 -290 -186
l-118 -78 0 -45 0 -45 -45 0 c-55 0 -155 -50 -340 -170 -175 -113 -356 -222
-495 -298 -104 -57 -118 -69 -140 -110 -24 -45 -32 -50 -221 -147 -107 -55
-228 -119 -268 -143 -70 -42 -72 -45 -66 -75 19 -88 115 -351 199 -540 51
-116 151 -347 221 -512 70 -165 141 -322 158 -349 46 -72 98 -106 163 -106 71
0 144 38 489 256 296 187 479 297 655 394 63 35 176 98 250 140 74 43 209 110
300 149 91 40 186 87 213 104 53 36 59 50 76 180 22 159 20 190 -104 1542 -94
1031 -177 2045 -168 2055 2 2 316 -308 697 -690 614 -616 717 -723 902 -945
218 -259 289 -328 387 -373 57 -26 57 -26 57 -70 0 -39 7 -53 76 -138 96 -119
187 -201 239 -215 48 -13 173 -6 230 14 36 13 41 19 59 74 l19 60 100 5 c95 5
103 7 196 54 53 28 202 120 331 206 268 178 391 248 718 412 l232 116 0 40 c0
40 0 40 -40 40 l-40 0 0 65 0 65 -40 0 -40 0 0 43 c0 41 -5 48 -67 109 -70 67
-146 121 -223 160 -43 22 -45 25 -48 70 l-3 47 -368 363 c-357 352 -370 365
-406 441 -35 75 -40 80 -93 105 -50 24 -69 27 -149 26 -78 -1 -100 -5 -146
-28 -67 -32 -76 -43 -102 -115 -22 -60 -21 -60 -143 -91 -31 -8 -63 -29 -108
-71 -68 -63 -150 -119 -276 -188 l-78 -42 0 -43 0 -43 -47 -6 c-125 -15 -148
-25 -219 -94 l-67 -65 -56 6 c-31 4 -77 13 -103 22 -39 13 -48 20 -48 39 0 48
-24 83 -134 195 -62 63 -161 169 -221 235 -174 191 -423 441 -660 663 -121
114 -308 293 -417 398 -266 260 -369 348 -453 389 -79 39 -155 59 -155 42z"/>
<path d="M46053 35904 c3 -109 15 -293 26 -409 70 -724 121 -1619 133 -2345
l3 -175 -125 -73 c-137 -80 -730 -376 -1095 -547 -227 -106 -1014 -491 -1023
-500 -6 -6 22 -150 54 -280 14 -55 56 -194 94 -310 38 -115 109 -345 159 -510
132 -435 134 -439 181 -460 53 -24 90 -18 270 45 l150 53 0 41 0 41 88 1 c108
1 164 17 352 101 80 36 217 92 305 125 88 33 197 83 242 110 127 76 221 116
433 184 l195 62 5 43 5 44 63 3 62 3 0 72 c0 274 42 3532 45 3536 3 2 6 2 8 0
2 -2 55 -65 118 -139 64 -74 191 -227 284 -340 93 -113 262 -315 375 -450 268
-318 365 -440 602 -755 384 -510 606 -782 707 -863 50 -41 138 -65 211 -60 44
3 79 15 147 50 48 25 149 72 223 103 74 32 169 74 210 95 41 20 161 70 265
110 328 124 659 258 975 392 395 169 733 317 743 327 14 14 -12 142 -42 207
-39 83 -195 349 -426 724 -100 162 -216 363 -259 445 -85 165 -302 498 -320
492 -6 -2 -91 -31 -188 -63 l-178 -59 0 -41 0 -41 -92 -17 c-247 -45 -390
-113 -1329 -632 -299 -165 -436 -226 -543 -240 -37 -5 -56 0 -137 39 -52 25
-116 64 -142 88 -27 23 -108 117 -181 208 -173 215 -366 440 -553 643 -83 90
-197 217 -254 283 -168 195 -234 257 -316 296 -65 31 -72 37 -73 64 -1 49 -33
105 -112 195 -107 122 -195 199 -278 244 l-73 39 6 -199z"/>
<path d="M47173 33288 c-4 -7 -8 -16 -9 -20 -1 -5 -3 -10 -4 -13 -1 -3 -4 -9
-5 -15 -1 -5 -3 -11 -5 -12 -19 -24 -27 -229 -34 -808 -8 -666 -23 -1341 -36
-1655 -12 -265 -30 -579 -35 -583 -2 -2 -74 -34 -162 -72 -171 -74 -333 -132
-502 -181 -58 -17 -158 -55 -221 -85 -63 -30 -207 -87 -320 -128 l-205 -73 -3
-41 -3 -42 -62 0 c-34 0 -92 -7 -129 -15 -133 -28 -541 -203 -680 -292 l-44
-28 52 -250 c30 -137 92 -437 139 -665 106 -514 130 -609 158 -634 47 -40 118
-68 156 -61 20 3 195 67 389 142 l352 136 0 43 0 42 78 7 c209 18 320 45 532
126 176 69 358 122 577 169 l152 33 20 86 c31 134 48 233 70 411 33 265 108
1272 176 2365 16 256 51 668 61 718 6 31 15 34 30 9 6 -9 99 -131 207 -269
442 -569 624 -830 741 -1060 24 -49 28 -52 68 -55 l43 -3 5 -50 c7 -59 2 -50
134 -258 56 -89 183 -299 281 -467 241 -413 303 -501 435 -627 50 -48 59 -53
101 -53 83 0 210 28 454 100 132 40 414 121 626 180 212 60 469 138 570 175
277 99 341 116 844 223 l130 28 3 41 c4 49 -25 40 292 89 135 20 247 38 249
40 9 8 30 142 31 189 0 62 -14 107 -95 315 -35 91 -95 253 -133 360 -38 107
-110 299 -160 425 -50 127 -124 329 -165 450 -41 121 -89 257 -107 301 l-32
82 -60 17 c-38 10 -74 14 -96 10 -19 -3 -112 -39 -206 -79 -188 -81 -345 -138
-506 -186 -58 -17 -149 -45 -202 -62 l-97 -31 -22 -64 -21 -63 -77 0 c-110 0
-181 -16 -296 -65 -135 -57 -410 -146 -594 -191 l-150 -37 -3 -41 -3 -41 -85
-6 c-74 -5 -128 -20 -428 -122 -189 -64 -350 -117 -357 -117 -16 0 -324 409
-550 730 -87 124 -191 268 -230 320 -97 129 -192 269 -250 365 -90 152 -92
155 -140 155 l-42 0 -7 49 c-5 37 -17 64 -47 103 -100 130 -181 241 -254 348
-43 63 -90 131 -105 150 -30 38 -83 74 -94 63 -3 -3 -6 3 -6 15 0 18 -6 22
-34 22 -19 0 -38 -6 -43 -12z"/>
<path d="M47966 30357 c-3 -61 -11 -245 -16 -407 -11 -300 -24 -498 -40 -581
-26 -139 -97 -878 -165 -1729 -15 -179 -30 -328 -33 -331 -4 -4 -50 -12 -102
-19 -162 -21 -289 -49 -450 -101 -204 -66 -458 -128 -710 -174 -113 -20 -211
-40 -219 -44 -8 -4 -23 -32 -33 -63 l-19 -55 -127 -6 c-158 -8 -280 -31 -542
-106 l-205 -58 1 -214 c0 -118 6 -270 13 -339 21 -209 110 -820 132 -902 19
-71 61 -151 115 -224 l22 -28 88 27 c151 45 938 204 1649 332 170 31 339 66
375 78 62 21 66 24 97 81 39 75 50 131 63 321 13 197 18 228 48 305 50 131 73
239 103 485 22 181 41 291 70 400 21 83 50 216 63 295 20 121 135 1163 165
1502 9 95 46 208 69 208 11 0 332 -484 439 -660 136 -225 217 -377 428 -804
118 -237 288 -570 380 -741 91 -170 198 -382 236 -470 39 -88 82 -184 95 -214
13 -29 39 -74 59 -100 32 -44 41 -50 122 -74 48 -15 122 -32 163 -38 180 -27
599 21 1040 120 96 22 281 56 410 76 397 61 447 72 530 115 102 52 158 65 425
94 244 28 350 48 481 96 76 27 249 58 501 91 51 7 97 15 102 18 11 7 -9 200
-39 366 -10 61 -44 214 -75 340 -105 433 -175 743 -255 1140 -44 219 -80 399
-80 400 0 2 -26 9 -57 16 -36 7 -101 9 -173 6 -103 -5 -144 -13 -395 -82 -776
-212 -1129 -305 -1539 -407 -448 -112 -448 -112 -520 -160 -71 -47 -73 -48
-541 -168 -258 -66 -473 -120 -477 -120 -5 0 -8 18 -8 40 0 40 0 40 -39 40
l-38 0 -5 49 c-4 39 -22 79 -90 193 -47 80 -206 362 -353 629 -148 266 -297
531 -333 589 -83 134 -424 637 -512 755 -63 83 -257 306 -279 319 -5 4 -12
-41 -15 -107z"/>
<path d="M7978 28853 c-21 -12 -44 -33 -52 -45 -8 -13 -38 -106 -67 -208 -28
-102 -65 -212 -82 -245 -51 -102 -67 -162 -103 -395 -87 -562 -112 -688 -178
-898 -20 -62 -47 -177 -61 -255 -88 -490 -263 -1326 -375 -1787 -93 -382 -109
-458 -195 -930 -82 -447 -105 -558 -171 -828 -25 -101 -69 -317 -99 -480 -32
-179 -88 -431 -139 -634 -102 -402 -168 -722 -241 -1153 -38 -226 -76 -408
-129 -620 -102 -406 -141 -587 -236 -1085 -44 -234 -106 -542 -136 -685 -79
-372 -510 -2411 -604 -2855 -104 -496 -203 -990 -290 -1454 -74 -392 -97 -493
-154 -674 -44 -139 -42 -130 -130 -592 -96 -506 -101 -536 -127 -715 -12 -87
-29 -164 -39 -186 -18 -34 -41 -147 -55 -269 -3 -30 -17 -89 -30 -130 -13 -41
-40 -138 -59 -215 -19 -77 -62 -219 -96 -314 -73 -211 -92 -301 -124 -596 -14
-126 -28 -244 -30 -261 -4 -29 -1 -33 47 -55 47 -22 62 -24 226 -24 l176 0 65
33 c36 18 72 38 81 45 39 29 100 292 119 507 12 146 14 153 63 248 48 92 60
147 92 421 27 234 30 243 91 381 34 78 41 107 76 350 61 426 67 458 112 580
24 63 50 142 59 176 19 67 197 965 252 1272 20 106 56 272 80 370 93 361 130
555 165 847 21 186 35 243 85 349 18 39 38 90 44 114 15 55 104 526 181 962
71 399 90 489 130 621 45 145 59 215 70 350 13 141 17 161 58 279 41 117 67
244 92 450 25 209 47 308 95 429 22 57 48 159 70 273 20 101 92 464 160 808
69 344 145 733 170 865 24 132 60 293 80 358 44 149 68 269 94 472 24 183 37
236 91 355 29 64 46 125 70 250 17 91 49 246 70 345 47 217 77 397 125 735 39
282 49 325 105 449 48 107 53 127 140 566 39 198 105 509 145 690 93 416 138
635 226 1105 75 403 108 555 170 803 42 168 164 712 198 887 26 134 47 269 61
394 10 96 10 100 -15 141 -54 93 -161 191 -310 287 l-70 45 -37 -24z"/>
<path d="M27610 28847 c-71 -20 -80 -29 -117 -112 -43 -99 -77 -220 -158 -575
-114 -495 -152 -704 -171 -955 -5 -71 -13 -102 -37 -150 -70 -141 -92 -247
-122 -604 -9 -101 -14 -190 -11 -197 5 -13 127 -44 176 -44 40 0 240 103 322
166 190 146 216 208 304 743 37 229 66 369 89 441 50 157 80 306 126 620 50
348 50 427 0 557 -36 92 -18 83 -196 103 -49 6 -106 12 -125 15 -19 2 -55 -2
-80 -8z"/>
<path d="M37630 28789 c-69 -87 -89 -188 -130 -644 -17 -180 -28 -260 -47
-320 -13 -44 -46 -190 -73 -325 -27 -135 -87 -429 -135 -655 -91 -434 -104
-535 -82 -625 l13 -55 17 31 c15 29 21 31 84 37 106 10 179 33 292 89 186 92
316 242 380 436 25 78 47 229 56 382 16 295 41 443 99 582 20 50 50 155 70
254 20 93 52 214 71 269 39 113 45 192 20 267 -13 38 -28 54 -87 96 -93 68
-259 152 -386 196 -57 20 -108 36 -113 36 -5 0 -27 -23 -49 -51z"/>
<path d="M17424 28803 l-161 -3 -26 -58 c-67 -152 -201 -844 -237 -1226 -15
-153 -38 -243 -90 -346 -69 -137 -86 -233 -129 -739 l-17 -204 80 6 c87 6 353
83 473 137 104 47 138 118 173 365 44 300 49 323 92 389 52 81 62 121 98 411
49 396 75 543 141 775 18 65 21 100 20 260 -1 169 -3 186 -21 204 -21 22 -99
35 -185 33 -27 -1 -123 -3 -211 -4z"/>
<path d="M31275 28720 c-143 -5 -167 -8 -223 -32 -98 -41 -166 -86 -235 -157
-58 -61 -66 -74 -96 -166 -18 -55 -73 -191 -122 -302 -290 -659 -389 -1000
-594 -2048 -77 -395 -122 -602 -200 -918 -30 -125 -101 -456 -156 -735 -205
-1036 -396 -1957 -499 -2409 -33 -143 -103 -476 -156 -738 -52 -263 -124 -606
-160 -764 -103 -455 -149 -673 -594 -2831 -104 -503 -203 -978 -220 -1055 -17
-77 -53 -249 -80 -382 -39 -198 -52 -248 -72 -271 -20 -23 -28 -55 -46 -178
-79 -520 -116 -707 -257 -1314 -131 -561 -188 -830 -264 -1245 -73 -391 -76
-406 -103 -458 -33 -65 -60 -328 -61 -597 -1 -245 8 -344 54 -572 18 -94 29
-179 29 -233 0 -81 2 -87 28 -111 71 -64 -53 -58 1467 -65 1254 -5 1411 -8
1715 -27 897 -57 1415 -55 1845 8 293 42 515 106 730 211 160 78 220 128 263
222 26 56 27 57 68 57 37 0 46 6 95 58 250 264 389 606 464 1142 17 123 51
287 100 490 91 373 136 595 175 872 34 238 36 249 90 408 30 87 42 143 50 230
14 151 33 238 80 363 54 145 84 329 140 878 9 88 13 102 54 168 53 86 58 104
141 546 36 193 82 432 101 533 19 101 48 261 64 355 17 95 53 262 80 372 59
240 100 450 140 725 40 267 61 367 110 524 31 98 48 186 76 375 24 165 47 283
69 358 19 61 37 134 41 163 6 47 5 53 -22 81 -65 68 9 64 -1029 67 -517 2
-964 0 -993 -3 -43 -5 -62 -14 -100 -48 l-47 -42 -1 -95 c0 -83 -17 -174 -132
-710 -72 -338 -178 -851 -236 -1140 -58 -289 -135 -646 -171 -795 -126 -513
-175 -732 -255 -1140 -45 -225 -105 -535 -135 -688 -30 -153 -86 -407 -124
-565 -39 -158 -97 -426 -130 -595 -109 -550 -128 -616 -207 -722 -48 -62 -51
-64 -125 -84 -67 -19 -104 -21 -346 -21 -268 0 -272 0 -325 -25 -44 -20 -69
-25 -143 -25 -49 -1 -353 -16 -675 -34 -322 -18 -586 -33 -587 -32 -1 1 5 78
13 171 17 199 31 259 84 376 38 82 42 100 85 400 60 417 60 419 105 534 58
151 72 211 165 715 103 554 120 638 185 880 28 102 93 404 145 672 100 511
139 697 229 1093 98 432 151 722 211 1150 22 153 32 200 55 245 43 86 58 138
90 323 16 94 46 242 65 327 133 580 168 753 219 1073 11 64 26 117 46 157 57
113 70 162 130 483 77 416 81 433 133 568 54 140 57 150 157 644 45 220 108
515 140 655 68 298 86 393 100 553 12 124 15 137 79 314 31 86 61 215 130 565
49 249 102 534 116 633 15 99 28 180 29 181 0 0 894 8 1986 17 1092 10 2085
20 2207 23 l223 6 39 122 c81 250 117 400 151 641 33 229 56 340 110 520 27
90 75 292 106 447 50 249 57 298 58 408 1 126 -14 210 -46 252 -12 16 -187 17
-2873 20 -1573 2 -2932 1 -3020 -2z"/>
<path d="M5415 28711 c-116 -7 -193 -32 -200 -65 -3 -12 -74 -361 -159 -776
-85 -415 -233 -1124 -330 -1575 -170 -798 -339 -1596 -492 -2330 -41 -198
-104 -477 -139 -620 -73 -298 -102 -441 -145 -714 -39 -251 -57 -337 -140
-681 -38 -157 -98 -429 -135 -605 -152 -730 -192 -902 -333 -1455 -39 -151
-80 -322 -93 -379 -13 -60 -33 -118 -46 -138 -30 -44 -25 -21 -148 -706 -126
-706 -164 -893 -260 -1287 -84 -347 -218 -976 -405 -1907 -71 -354 -168 -815
-214 -1025 -47 -211 -130 -608 -185 -883 -55 -275 -125 -610 -156 -745 -74
-322 -109 -490 -195 -934 -75 -388 -80 -409 -110 -441 -21 -23 -26 -49 -150
-722 -125 -684 -164 -868 -250 -1179 -22 -82 -57 -237 -76 -344 -19 -107 -37
-205 -39 -216 -3 -15 -18 -25 -50 -34 -58 -16 -62 -24 -24 -41 l31 -12 -6 -71
c-17 -173 -48 -387 -67 -458 -18 -67 -71 -170 -125 -246 -16 -21 -16 -22 10
-22 32 0 32 -4 2 -71 -18 -38 -36 -125 -63 -289 l-39 -235 -37 -3 c-43 -4 -44
-9 -20 -95 30 -107 34 -108 863 -128 695 -17 3380 -23 4335 -10 933 13 1775
30 1822 37 23 3 34 12 41 32 6 15 34 79 63 142 79 176 114 282 144 437 20 103
32 146 46 159 24 21 65 153 118 374 52 216 78 370 91 538 18 231 27 279 69
371 22 48 44 113 50 146 17 102 33 304 27 339 -4 19 -24 53 -44 77 l-38 42
-1410 2 c-956 1 -1699 7 -2309 19 -495 10 -901 19 -902 20 -1 1 11 121 28 267
33 294 55 411 94 514 15 39 35 99 46 134 23 79 71 390 99 650 21 189 23 195
58 250 20 31 43 76 53 101 9 25 54 239 99 475 45 237 104 529 131 650 142 627
349 1642 414 2035 47 279 69 378 116 527 28 88 48 186 74 360 53 349 69 429
129 640 77 268 116 452 191 891 72 427 88 501 146 682 22 69 60 229 85 355
117 598 152 768 234 1145 49 223 123 572 164 775 85 420 129 628 250 1175 99
449 165 772 201 990 34 208 61 342 95 480 16 63 45 201 65 305 20 105 56 273
80 375 56 237 71 320 91 510 13 129 21 164 44 210 57 113 83 219 196 800 129
669 146 751 203 976 101 402 217 960 296 1428 56 325 99 520 154 700 17 54 31
111 31 127 0 16 -16 62 -36 102 l-37 74 -276 6 c-330 8 -1554 6 -1696 -2z"/>
<path d="M11071 28709 c-69 -13 -130 -59 -161 -119 -10 -21 -20 -71 -24 -125
-16 -196 -64 -446 -176 -915 -53 -218 -96 -428 -115 -560 -14 -99 -40 -218
-105 -490 -38 -157 -114 -510 -170 -785 -55 -275 -136 -657 -180 -850 -43
-192 -104 -470 -134 -617 -31 -146 -83 -394 -116 -550 -34 -156 -119 -571
-190 -923 -71 -352 -167 -811 -214 -1020 -46 -209 -110 -510 -141 -670 -67
-342 -136 -673 -200 -950 -25 -110 -93 -434 -150 -720 -57 -286 -135 -657
-174 -825 -38 -168 -150 -712 -249 -1210 -100 -498 -215 -1053 -257 -1235
-122 -526 -197 -873 -310 -1435 -58 -289 -135 -645 -170 -791 -65 -267 -106
-463 -210 -1004 -85 -442 -225 -1066 -341 -1527 -18 -75 -34 -146 -34 -157 0
-15 16 -29 60 -51 126 -63 34 -60 1625 -60 1883 0 3181 15 4032 46 l181 7 60
126 c72 149 83 186 117 396 15 88 40 210 56 270 92 346 114 462 154 805 19
157 36 258 58 335 26 91 31 128 32 215 0 58 -4 131 -8 163 l-8 57 -1775 0
-1774 0 0 169 c0 167 1 172 36 288 51 166 50 160 89 448 43 307 38 285 82 405
60 161 70 204 143 590 79 416 110 560 176 825 61 240 80 338 99 492 28 233 46
336 77 417 58 158 89 296 233 1029 80 408 147 747 149 752 2 7 442 10 1293 10
1277 0 1291 0 1313 20 48 43 68 97 89 230 11 72 32 171 47 220 84 283 108 401
124 605 8 111 13 134 44 201 53 114 82 226 132 508 25 141 63 345 85 453 21
108 39 210 39 226 0 19 -11 38 -32 59 -67 62 30 58 -1317 54 l-1233 -4 6 29
c3 16 19 128 36 249 67 483 78 541 124 649 55 128 59 150 91 391 28 213 49
319 113 565 42 162 78 356 112 600 16 121 26 160 59 235 22 50 51 131 66 180
44 156 277 1337 345 1751 l11 72 127 6 c240 13 697 26 889 26 l191 0 11 30 10
30 215 0 216 0 6 -26 6 -25 842 4 c986 4 1016 6 1123 79 43 29 70 56 86 88 25
46 144 482 196 720 46 206 78 390 96 550 19 172 33 238 75 351 42 114 56 187
71 367 l13 152 -35 36 c-19 20 -47 43 -64 52 -28 16 -239 17 -2840 18 -1547 1
-2830 -2 -2854 -7z"/>
<path d="M21155 28709 c-93 -5 -230 -15 -304 -24 -126 -14 -136 -17 -182 -51
-27 -20 -60 -50 -74 -68 -35 -45 -90 -180 -115 -281 -12 -48 -34 -118 -50
-154 -15 -36 -52 -124 -83 -196 -178 -418 -337 -943 -422 -1390 -20 -104 -70
-341 -111 -525 -93 -412 -233 -1090 -394 -1895 -127 -641 -145 -719 -209 -932
-23 -76 -55 -224 -76 -345 -52 -308 -77 -434 -160 -803 -41 -181 -106 -483
-145 -670 -177 -849 -216 -1030 -285 -1335 -41 -179 -104 -478 -140 -665 -136
-700 -178 -909 -251 -1233 -41 -183 -108 -512 -149 -731 -78 -414 -135 -682
-204 -958 -23 -89 -86 -384 -140 -655 -119 -588 -119 -590 -177 -838 -25 -107
-92 -429 -149 -715 -58 -286 -133 -637 -169 -780 -120 -485 -169 -730 -202
-1020 -22 -196 -23 -551 -1 -730 9 -71 21 -197 28 -280 l11 -150 41 -63 c22
-35 47 -67 56 -72 56 -29 196 -31 2168 -20 2423 12 2847 21 3113 66 282 48
553 156 694 278 250 216 460 592 576 1031 48 181 145 709 200 1090 13 85 37
196 55 255 64 203 77 253 156 648 98 491 138 706 184 982 38 231 61 323 106
438 63 157 106 384 129 677 13 164 27 233 81 392 70 206 106 365 204 898 147
796 180 966 275 1420 109 518 157 760 165 846 l7 66 -46 40 c-25 22 -60 43
-77 47 -42 8 -1816 8 -1942 -1 -97 -6 -97 -6 -118 -40 -17 -28 -24 -69 -40
-251 -34 -401 -52 -488 -110 -548 -31 -32 -32 -37 -85 -351 -64 -376 -78 -450
-151 -773 -30 -135 -97 -457 -148 -716 -52 -260 -137 -647 -189 -860 -52 -214
-124 -513 -160 -664 -36 -151 -96 -401 -135 -555 -38 -154 -101 -437 -141
-630 -118 -581 -195 -891 -272 -1097 -29 -77 -45 -108 -57 -108 -9 0 -99 -6
-201 -14 -102 -8 -232 -18 -290 -21 -58 -3 -199 -19 -315 -35 -379 -52 -418
-55 -852 -55 -226 0 -414 3 -417 6 -9 9 50 596 70 693 8 44 35 123 59 175 52
115 51 112 115 425 59 293 99 526 136 796 23 169 31 207 64 285 72 170 84 224
194 875 43 248 77 400 151 670 59 216 246 1159 306 1545 17 113 59 313 96 460
117 473 277 1218 362 1694 22 119 63 316 91 437 28 120 65 284 81 364 17 80
52 233 79 341 111 442 159 679 210 1034 16 116 46 275 65 355 20 80 56 242 80
360 30 144 57 248 84 315 48 124 67 202 136 580 69 373 138 697 217 1018 54
219 63 248 82 252 11 2 111 12 221 22 181 16 383 18 2168 21 l1968 3 59 120
c67 138 89 215 120 418 16 101 36 182 66 268 60 169 84 268 174 723 78 390
102 536 116 698 l7 83 -34 36 c-19 19 -48 42 -66 49 -27 12 -470 14 -2825 12
-1536 0 -2869 -5 -2963 -9z"/>
<path d="M48636 27418 c-3 -7 -43 -272 -91 -588 -196 -1307 -181 -1224 -256
-1391 -38 -84 -41 -99 -94 -475 -31 -214 -57 -395 -60 -401 -2 -7 -13 -13 -24
-13 -15 0 -22 -14 -38 -77 -10 -42 -25 -80 -33 -84 -8 -4 -391 -60 -850 -124
-459 -64 -914 -130 -1010 -146 -178 -29 -517 -96 -532 -105 -11 -7 -10 -393 2
-614 17 -299 60 -931 66 -978 11 -73 24 -77 259 -76 179 2 216 5 355 32 236
47 291 51 760 62 239 6 542 15 674 19 l239 10 43 42 c27 26 49 60 58 88 8 25
44 197 80 382 37 190 77 366 92 405 68 179 89 261 164 659 90 472 105 535 161
654 40 87 44 101 114 481 37 204 94 474 141 673 l28 117 24 -22 c13 -13 62
-99 109 -193 47 -93 126 -242 176 -330 189 -335 320 -624 496 -1090 108 -286
182 -451 255 -568 54 -87 171 -345 273 -602 127 -322 183 -418 264 -459 45
-22 66 -26 143 -26 50 0 168 9 261 20 455 52 762 77 1495 120 872 51 1310 84
1710 130 96 11 183 20 194 20 18 0 18 15 13 393 -5 434 -15 531 -68 696 -61
192 -67 235 -94 661 -29 453 -36 520 -60 557 l-18 26 -226 -6 c-124 -4 -291
-12 -370 -17 -139 -10 -147 -11 -240 -54 -126 -57 -164 -65 -636 -131 -411
-57 -746 -111 -1175 -189 -416 -76 -770 -126 -1265 -181 l-50 -6 -62 83 c-139
189 -162 232 -258 473 -36 94 -165 370 -285 615 -120 245 -295 607 -388 805
-253 536 -298 627 -329 663 -32 38 -131 80 -137 60z"/>
<path d="M32925 25955 c-184 -20 -193 -23 -248 -74 -80 -75 -99 -124 -147
-391 -63 -353 -85 -463 -146 -715 -78 -326 -115 -499 -190 -893 -74 -392 -102
-523 -179 -838 -30 -122 -80 -347 -110 -500 -31 -154 -90 -434 -131 -624 -100
-459 -137 -640 -185 -915 -63 -365 -121 -605 -216 -905 -42 -132 -47 -154 -47
-245 0 -55 3 -117 8 -137 l9 -38 -39 0 c-38 0 -40 -1 -62 -57 -16 -40 -33
-124 -52 -268 -43 -312 -47 -336 -84 -433 -60 -156 -73 -214 -176 -790 -118
-663 -144 -791 -205 -1012 -57 -210 -114 -462 -160 -710 -66 -358 -96 -503
-160 -760 -81 -328 -134 -577 -185 -870 -62 -356 -77 -423 -115 -525 -39 -104
-42 -148 -22 -275 l12 -75 287 -3 c267 -2 287 -1 292 15 2 10 12 56 21 103 9
47 37 150 62 230 96 310 181 686 268 1180 26 146 69 353 96 460 27 107 54 238
60 290 27 258 28 259 54 297 40 60 82 179 104 298 11 61 30 162 41 225 12 63
50 201 85 305 94 281 196 753 225 1043 13 131 24 177 71 282 40 92 50 144 75
380 19 184 45 314 84 419 45 117 66 205 115 481 24 140 56 302 70 360 48 192
263 1203 289 1355 15 83 58 280 97 438 38 158 128 577 199 930 145 723 152
756 220 1027 26 107 64 290 84 407 40 235 75 408 135 680 67 300 121 645 121
779 l0 41 -57 16 c-89 24 -138 26 -268 12z"/>
<path d="M13105 25923 c-11 -2 -30 -6 -43 -9 -16 -3 -30 -19 -42 -47 -18 -41
-68 -283 -110 -537 -12 -69 -32 -159 -45 -202 -13 -42 -96 -363 -185 -713
-117 -464 -167 -682 -184 -799 -21 -138 -29 -172 -62 -240 -36 -76 -38 -83
-42 -210 -4 -127 -6 -133 -42 -206 -54 -108 -63 -141 -136 -490 -76 -365 -77
-393 -25 -507 l34 -73 288 0 287 0 30 38 c75 95 71 79 332 1372 87 432 182
913 210 1070 80 447 117 637 175 896 78 348 86 438 54 600 l-10 51 -166 6
c-176 7 -285 7 -318 0z"/>
<path d="M22537 25920 c-21 -6 -50 -16 -65 -24 -32 -16 -39 -39 -72 -231 -27
-152 -47 -236 -109 -462 -28 -101 -75 -308 -106 -460 -56 -279 -112 -505 -205
-838 -63 -227 -108 -430 -160 -715 -23 -124 -72 -353 -110 -510 -38 -157 -105
-463 -149 -680 -44 -217 -100 -483 -125 -590 -71 -310 -127 -584 -246 -1205
-61 -320 -126 -632 -145 -695 -71 -238 -105 -394 -184 -853 -55 -313 -89 -472
-151 -702 -48 -180 -114 -494 -170 -815 -59 -334 -101 -529 -175 -810 -35
-135 -78 -317 -95 -405 -47 -245 -67 -342 -120 -575 -60 -261 -91 -428 -125
-670 -30 -208 -34 -227 -82 -395 -27 -93 -36 -145 -40 -230 -5 -109 -5 -110
22 -135 l27 -25 251 -3 c326 -3 305 -14 335 166 12 71 30 150 41 175 49 113
83 250 116 460 48 306 86 498 145 738 28 112 62 276 75 364 13 88 31 180 40
205 42 114 67 215 80 335 23 193 41 288 86 447 123 435 227 918 279 1288 24
174 39 247 64 320 43 121 80 289 101 455 22 180 41 265 81 369 19 49 43 123
54 165 26 105 91 447 145 773 35 211 56 304 90 410 60 184 83 282 95 413 19
202 30 256 67 328 63 127 102 261 115 403 10 112 16 141 50 220 21 50 56 165
77 255 49 206 287 1368 341 1669 65 359 79 428 115 545 65 212 106 366 174
662 95 410 109 477 117 564 7 78 -10 263 -27 290 -7 11 -54 14 -246 16 -131 1
-255 -2 -276 -7z"/>
<path d="M49026 24338 c-14 -29 -52 -181 -86 -338 -209 -969 -400 -1655 -645
-2315 -43 -115 -79 -211 -80 -212 0 -1 -370 -9 -820 -18 -451 -8 -919 -19
-1040 -25 -225 -11 -546 -37 -555 -46 -2 -3 -5 -369 -5 -814 l0 -808 24 -26
c13 -14 43 -35 65 -45 38 -18 84 -21 566 -36 289 -8 725 -24 969 -35 244 -11
486 -20 537 -20 88 0 94 1 113 27 12 14 33 65 47 112 61 208 121 377 189 531
125 283 164 401 230 683 42 184 85 314 150 457 110 242 190 469 250 711 58
232 208 719 232 755 6 8 25 6 67 -10 l60 -21 17 -95 c18 -105 53 -216 100
-318 61 -133 110 -266 169 -458 80 -257 125 -382 218 -599 42 -99 124 -322
183 -495 l106 -315 42 -3 41 -3 0 -82 c0 -110 17 -184 100 -432 38 -115 87
-270 109 -344 22 -73 42 -135 44 -137 2 -2 39 -13 82 -24 56 -14 111 -20 194
-20 94 0 124 -4 160 -20 51 -24 97 -26 105 -5 5 13 42 15 255 15 241 0 249 -1
254 -20 12 -47 123 -72 397 -90 307 -20 2584 -129 2590 -124 3 3 5 542 5 1197
0 1246 0 1240 -42 1282 -12 13 -61 15 -308 15 -260 0 -304 -2 -381 -20 -47
-11 -127 -25 -178 -31 -50 -6 -602 -35 -1226 -65 -624 -30 -1271 -63 -1437
-74 -166 -11 -349 -20 -407 -20 l-104 0 -71 84 c-175 208 -230 308 -316 570
-66 201 -135 381 -385 1006 -109 272 -235 592 -280 710 -117 306 -144 354
-241 431 l-39 31 -24 -54z"/>
<path d="M15023 21650 c-75 -15 -104 -26 -155 -61 -100 -68 -132 -110 -186
-240 -58 -141 -252 -820 -291 -1019 -11 -58 -61 -393 -111 -745 -49 -352 -92
-652 -94 -666 -4 -23 2 -29 70 -62 41 -20 76 -37 79 -37 2 0 12 24 21 54 l17
54 66 6 c79 8 113 27 218 122 135 121 232 262 285 414 10 30 43 197 73 370 30
173 95 524 144 780 50 256 97 508 105 560 18 110 40 413 32 438 -8 24 -83 52
-136 51 -25 0 -86 -9 -137 -19z"/>
<path d="M49196 21359 c-29 -34 -27 -27 -171 -537 -114 -401 -138 -473 -237
-712 -36 -85 -95 -243 -133 -350 -119 -345 -173 -488 -327 -872 l-152 -377
-45 -7 c-78 -12 -249 4 -346 31 -168 47 -347 75 -669 105 -176 17 -488 48
-692 70 -204 22 -405 40 -445 40 -64 0 -204 -22 -216 -33 -7 -8 -32 -389 -42
-642 -6 -137 -11 -394 -11 -570 -2 -477 -4 -433 28 -464 16 -14 52 -39 81 -54
46 -26 91 -34 464 -87 226 -33 516 -78 642 -100 127 -22 327 -56 445 -75 118
-19 282 -47 363 -61 82 -14 150 -24 153 -21 2 2 82 179 178 393 95 214 207
463 249 554 95 210 115 257 197 470 37 96 112 281 168 410 55 129 138 332 185
450 46 118 103 260 127 315 57 135 262 555 271 555 4 0 14 -19 22 -42 9 -24
45 -124 81 -223 132 -357 211 -648 426 -1560 105 -443 297 -1218 335 -1350 45
-155 83 -225 156 -284 138 -111 156 -115 951 -196 300 -31 355 -39 403 -61 49
-21 116 -31 505 -74 495 -55 548 -64 683 -115 51 -19 122 -41 158 -49 52 -12
606 -96 1198 -181 62 -9 117 -13 122 -8 22 22 51 323 79 838 42 762 38 725 66
758 l24 29 0 371 -1 372 -25 19 c-32 23 -73 26 -889 71 -760 42 -1124 67
-1455 101 -476 48 -527 53 -725 68 -206 16 -996 66 -1045 66 -26 0 -31 9 -113
203 -228 539 -297 740 -452 1307 -94 344 -108 394 -196 675 -33 105 -89 307
-124 450 -35 143 -73 285 -83 315 -18 54 -20 55 -80 77 l-61 22 -25 -30z"/>
<path d="M25703 20424 c-52 -19 -56 -29 -118 -319 -25 -115 -90 -388 -145
-605 -161 -642 -244 -1034 -295 -1390 -16 -114 -41 -238 -65 -321 -42 -148
-89 -376 -115 -559 -9 -63 -29 -155 -45 -205 -15 -49 -31 -106 -35 -125 -4
-19 -47 -217 -96 -440 -152 -685 -177 -811 -228 -1155 -17 -110 -40 -231 -51
-270 -68 -230 -158 -659 -295 -1405 -174 -945 -296 -1394 -505 -1850 -32 -69
-129 -254 -217 -412 l-160 -286 57 -16 c80 -23 94 -21 158 23 31 21 107 68
168 104 252 152 506 412 670 689 156 264 245 518 314 908 18 96 45 222 61 280
41 146 67 300 79 470 5 80 10 148 10 152 0 3 20 30 44 58 50 59 64 102 97 300
30 185 63 351 135 677 74 339 191 900 299 1433 42 206 96 458 120 560 60 253
77 344 125 661 45 299 61 378 115 574 75 273 111 465 239 1287 41 262 88 536
104 610 36 160 39 177 52 297 l10 94 -30 46 c-58 92 -99 115 -237 132 -153 19
-177 19 -220 3z"/>
<path d="M35813 20380 c-22 -5 -58 -18 -80 -28 -98 -51 -119 -105 -183 -477
-91 -532 -158 -889 -205 -1097 -66 -289 -92 -432 -110 -598 -36 -331 -53 -427
-89 -499 -52 -103 -71 -182 -121 -501 -25 -162 -56 -340 -69 -395 -13 -55 -44
-185 -69 -290 -25 -104 -73 -334 -107 -510 -68 -353 -86 -443 -195 -940 -40
-187 -85 -412 -99 -500 -15 -88 -49 -254 -77 -370 -125 -519 -215 -953 -264
-1262 -46 -296 -73 -400 -145 -558 -17 -38 -53 -144 -80 -235 -123 -417 -234
-641 -411 -825 -81 -84 -82 -85 -75 -126 4 -22 13 -56 21 -75 l14 -33 53 15
c302 90 543 256 647 446 41 75 43 77 125 118 74 37 87 48 123 103 134 204 220
450 294 840 29 152 35 174 71 229 56 86 63 110 103 323 20 105 78 377 130 605
106 471 168 779 220 1090 50 300 78 442 140 690 96 385 119 504 216 1115 24
151 47 249 94 396 53 166 127 542 219 1124 34 210 55 311 85 407 22 69 49 161
60 205 19 72 133 687 215 1158 19 110 43 237 53 282 l17 82 -23 25 c-14 14
-45 36 -70 48 -41 20 -64 22 -216 24 -93 2 -189 -1 -212 -6z"/>
<path d="M11474 18593 c-41 -4 -41 -4 -82 -91 -22 -48 -47 -109 -56 -137 -18
-61 -136 -732 -171 -975 -17 -121 -33 -192 -50 -230 -25 -58 -63 -232 -114
-525 -16 -93 -46 -228 -65 -299 -43 -156 -77 -329 -106 -536 -14 -100 -30
-176 -46 -215 -23 -56 -53 -165 -189 -691 -79 -307 -148 -668 -149 -779 0 -82
2 -96 32 -157 l32 -66 75 -7 c42 -4 172 -4 289 0 l213 7 31 87 c44 119 61 200
72 348 13 164 17 187 51 254 55 110 70 176 110 493 44 347 58 431 94 561 58
207 65 243 80 389 14 142 18 160 55 240 22 48 49 120 60 159 19 74 74 443 85
577 15 178 25 228 66 315 119 255 222 713 245 1094 l7 107 -39 32 c-21 18 -55
37 -74 42 -33 9 -364 11 -456 3z"/>
<path d="M49042 18033 c-120 -250 -183 -389 -308 -686 -205 -487 -445 -1015
-669 -1474 l-133 -272 -37 -7 c-58 -11 -140 1 -275 41 -230 67 -476 118 -855
178 l-210 33 -3 41 c-3 40 -4 41 -45 47 -128 18 -790 76 -870 76 -79 0 -84
-13 -108 -272 -32 -355 -98 -1251 -99 -1340 0 -20 1425 -443 1833 -543 216
-53 198 -57 266 55 32 52 141 253 241 445 101 193 226 424 278 515 134 232
718 1397 752 1500 15 47 31 109 35 138 l7 52 42 0 42 0 39 80 c21 44 44 80 50
80 15 0 108 -31 117 -39 12 -11 193 -1001 294 -1606 25 -148 90 -585 144 -970
102 -713 130 -883 156 -922 34 -54 127 -83 424 -133 155 -26 186 -34 222 -60
48 -32 562 -182 1138 -330 371 -96 705 -189 1185 -333 355 -107 531 -153 685
-181 80 -15 326 -46 361 -46 19 0 37 83 118 545 44 250 71 412 182 1093 28
169 51 273 111 488 l22 81 -34 53 c-19 29 -38 57 -41 62 -8 13 -163 44 -444
88 -193 31 -266 46 -287 61 -15 11 -40 24 -55 29 -15 6 -377 66 -803 135 -795
129 -874 144 -1043 196 -152 47 -245 63 -802 139 -498 68 -692 101 -704 118
-3 4 -21 29 -39 55 -19 26 -40 67 -48 90 -7 23 -77 353 -154 732 -256 1254
-303 1465 -417 1860 -42 143 -78 268 -80 278 -4 13 -16 17 -48 17 l-42 0 -91
-187z"/>
<path d="M48637 14902 c-322 -649 -587 -1135 -965 -1767 -135 -225 -246 -412
-248 -413 -1 -2 -43 6 -93 17 -69 16 -394 61 -443 61 -5 0 -8 20 -8 44 0 43
-1 44 -49 65 -27 11 -143 48 -258 82 -369 107 -505 150 -668 209 -88 31 -198
69 -245 83 -104 32 -368 97 -391 97 -21 0 -82 -95 -104 -159 -12 -39 -77 -367
-171 -866 -35 -184 -64 -421 -64 -520 l0 -84 38 -31 c47 -39 136 -81 327 -155
354 -137 540 -212 734 -297 256 -112 466 -196 634 -254 71 -24 131 -44 132
-44 7 0 197 242 247 315 31 44 111 170 178 280 174 282 278 438 349 525 80 99
134 206 161 324 l22 96 42 0 c40 0 43 2 65 48 43 87 99 176 213 339 63 88 156
228 207 310 51 81 150 231 221 332 l130 184 18 -44 c68 -160 84 -242 136 -709
84 -744 104 -1016 130 -1700 38 -994 35 -942 72 -1102 15 -62 21 -73 75 -122
71 -66 156 -109 274 -136 48 -12 137 -43 199 -70 195 -85 363 -149 600 -229
304 -104 380 -135 771 -316 491 -227 1268 -568 1456 -638 112 -42 260 -82 341
-92 49 -6 57 -5 62 11 3 11 39 140 81 287 42 148 116 382 165 520 145 415 188
584 199 797 l6 125 42 3 c29 2 44 8 47 20 7 22 116 499 116 506 0 2 -17 6 -37
8 -37 3 -38 4 -41 46 -2 23 -5 42 -7 42 -8 0 -583 152 -721 190 -82 23 -272
80 -421 126 -290 89 -508 150 -743 209 -281 70 -352 94 -390 130 -51 48 -63
52 -224 75 -117 17 -217 42 -504 126 -196 58 -463 133 -592 165 -129 33 -253
70 -275 82 -45 25 -62 55 -99 168 -35 108 -50 197 -101 594 -24 193 -64 510
-89 705 -25 195 -70 573 -100 840 -98 857 -84 789 -172 836 -112 62 -87 87
-267 -274z"/>
<path d="M14255 13641 c-67 -11 -134 -30 -167 -47 -47 -24 -85 -121 -104 -263
-10 -83 -25 -148 -44 -197 -46 -116 -67 -214 -95 -445 -28 -240 -35 -279 -100
-594 -25 -121 -66 -355 -91 -520 -48 -317 -55 -435 -31 -535 15 -65 15 -65
150 -14 161 62 243 111 341 205 148 141 189 230 236 499 21 125 37 186 65 250
49 113 79 235 109 437 52 349 75 631 77 933 0 164 -13 241 -49 273 -21 19
-217 31 -297 18z"/>
<path d="M48232 12200 c-46 -28 -81 -109 -135 -311 l-44 -164 -42 -3 c-47 -4
-40 4 -179 -222 -87 -143 -242 -367 -398 -576 -118 -158 -204 -304 -204 -347
0 -55 -10 -67 -55 -67 l-43 0 -61 -102 c-52 -88 -67 -107 -107 -127 -38 -20
-68 -54 -162 -180 -63 -86 -118 -159 -122 -164 -7 -8 -298 88 -455 151 -196
78 -663 295 -905 420 -449 232 -453 234 -528 239 -40 3 -85 -1 -111 -9 l-44
-13 -73 -285 c-40 -157 -128 -478 -197 -715 -155 -534 -154 -531 -130 -597 10
-30 32 -63 53 -81 19 -17 127 -75 238 -129 246 -119 413 -208 632 -338 435
-257 603 -344 732 -380 l73 -20 55 62 c139 156 226 283 259 381 17 51 19 52
61 57 44 5 45 6 105 106 50 85 67 106 104 125 50 27 83 75 251 359 117 198
122 205 171 231 29 14 45 35 79 101 27 53 64 105 103 145 52 53 67 78 102 164
l40 102 64 22 c62 20 65 23 89 76 13 29 32 77 41 104 17 48 19 50 59 53 40 3
43 5 77 71 47 89 118 172 263 308 l120 112 6 -82 c35 -450 46 -978 46 -2207 1
-1083 8 -1429 28 -1481 15 -38 110 -97 253 -158 180 -78 280 -130 400 -209
213 -141 982 -556 1196 -646 142 -60 281 -133 498 -261 303 -180 477 -278 571
-321 68 -32 243 -84 280 -84 8 0 65 103 135 241 66 133 149 291 183 353 92
162 235 450 389 786 152 332 182 409 206 530 l17 85 37 3 c20 2 37 7 37 12 0
4 -32 42 -71 84 -124 133 -256 208 -566 320 -239 86 -253 92 -470 192 -253
116 -364 161 -583 234 -102 34 -219 80 -260 102 -41 22 -120 64 -175 93 -86
46 -523 226 -1140 469 -138 55 -179 76 -220 112 -50 44 -146 89 -248 115 l-47
11 0 422 c0 694 -24 1277 -95 2301 -14 198 -27 379 -31 403 l-5 42 -57 0 c-40
0 -67 -6 -90 -20z"/>
<path d="M8940 9996 c-167 -62 -168 -63 -200 -125 -28 -57 -156 -436 -184
-546 -8 -33 -29 -141 -46 -240 -60 -347 -113 -603 -225 -1080 -76 -327 -108
-497 -140 -762 l-7 -53 49 0 c69 0 134 21 297 97 283 133 355 228 411 545 15
87 31 149 43 166 31 44 37 74 127 577 113 642 160 972 181 1291 l7 101 -59 36
c-76 48 -108 47 -254 -7z"/>
<path d="M47478 9197 l-3 -62 -42 -3 c-38 -3 -46 -8 -75 -50 -17 -26 -65 -89
-105 -140 -86 -111 -142 -203 -173 -289 l-23 -63 -42 0 -41 0 -78 -114 c-104
-155 -187 -258 -500 -616 -147 -168 -339 -391 -428 -497 -156 -186 -163 -192
-222 -214 l-60 -23 -89 47 c-49 26 -206 120 -350 209 -144 88 -350 210 -457
271 -107 60 -285 166 -395 235 -110 69 -235 143 -278 164 -72 36 -206 78 -248
78 -19 0 -17 5 -105 -244 -67 -193 -156 -416 -225 -568 -125 -277 -188 -479
-223 -725 l-6 -41 65 -22 65 -22 0 -42 0 -42 88 -51 c118 -70 232 -123 306
-142 l61 -16 3 -41 3 -40 77 -19 77 -20 5 -45 c4 -39 11 -49 52 -80 66 -49
307 -202 543 -343 l199 -120 366 369 c445 450 554 573 620 705 l48 95 62 19
62 19 43 86 43 86 62 19 62 19 43 86 43 86 62 19 c69 21 74 28 93 128 l11 57
62 0 62 0 39 63 c22 34 51 82 65 105 16 30 40 52 73 70 37 20 85 68 185 184
l135 157 3 -462 c5 -746 -14 -1167 -93 -2032 -60 -656 -86 -1120 -69 -1242 6
-46 10 -53 38 -64 17 -8 68 -48 112 -90 55 -51 126 -103 220 -159 184 -110
327 -204 509 -337 177 -129 269 -191 510 -345 99 -63 304 -201 455 -307 285
-200 412 -281 442 -281 29 0 102 31 126 55 13 12 38 50 55 86 31 62 33 64 73
67 l41 3 39 100 39 99 42 0 c41 0 44 2 84 63 23 34 83 105 133 157 50 53 146
167 213 255 67 88 158 201 203 250 160 178 249 319 272 429 l11 56 41 0 41 0
-40 23 c-35 20 -40 27 -43 64 -2 33 -10 46 -35 65 -49 37 -340 202 -767 436
-481 263 -541 297 -775 447 -324 207 -901 543 -1270 738 -104 55 -191 102
-193 103 -2 1 4 82 12 181 22 254 36 671 44 1338 6 464 4 594 -6 650 -10 50
-13 165 -13 408 1 328 2 339 21 355 19 16 21 26 18 126 l-3 109 -52 18 -52 17
-3 -61z"/>
<path d="M16403 6530 c-229 -81 -388 -250 -453 -480 -27 -95 -39 -422 -39
-1010 0 -560 12 -872 39 -974 51 -199 167 -350 340 -440 143 -75 298 -106 532
-106 234 0 401 38 543 124 52 31 121 85 114 89 -2 1 -13 7 -24 14 -74 45 -147
83 -188 98 -26 10 -50 22 -53 26 -10 17 19 96 61 164 91 150 101 184 116 400
17 251 -4 482 -52 576 -10 21 -41 63 -69 95 -27 31 -50 61 -50 66 0 4 -16 26
-36 48 -30 33 -51 45 -118 65 -45 14 -91 32 -104 41 -21 14 -28 14 -98 -7
-129 -38 -194 -102 -194 -189 0 -66 10 -76 51 -51 63 39 158 20 192 -38 32
-55 39 -157 34 -548 -4 -417 -7 -437 -64 -489 -21 -20 -30 -34 -24 -39 6 -3
18 -22 26 -42 8 -20 32 -51 52 -70 30 -29 34 -36 22 -47 -38 -36 -215 -47
-327 -21 -113 27 -194 81 -232 156 -39 75 -41 131 -38 1174 l3 1010 23 65 c12
36 22 81 22 101 0 19 12 69 26 110 14 41 27 81 29 89 2 8 5 22 7 30 1 8 8 18
13 22 18 14 -30 7 -82 -12z"/>
<path d="M20483 6530 c-222 -79 -369 -234 -423 -446 -34 -133 -50 -610 -30
-899 17 -253 56 -361 164 -463 127 -119 247 -165 424 -164 209 2 324 51 408
176 l34 51 0 -335 c0 -184 -5 -353 -10 -375 -5 -25 -22 -52 -42 -71 l-34 -30
23 -46 c13 -26 37 -59 53 -75 17 -15 30 -33 30 -40 0 -22 -101 -46 -195 -46
-152 0 -282 47 -349 124 -36 42 -49 73 -61 142 -5 34 -9 37 -38 37 -18 0 -50
9 -72 19 -36 16 -48 32 -104 134 -34 64 -60 121 -56 127 4 6 -24 10 -83 10
-106 0 -102 6 -90 -140 24 -296 146 -495 368 -603 146 -71 230 -88 455 -94
168 -5 203 -3 300 17 152 30 293 91 380 165 l30 26 -35 29 c-18 17 -68 44
-110 61 -41 17 -81 36 -88 43 -17 17 14 147 49 201 37 58 69 121 91 185 25 71
37 328 37 810 0 468 -12 718 -37 790 -25 71 -57 136 -89 178 -14 18 -36 61
-49 94 -13 33 -35 76 -49 94 -58 76 -194 124 -351 124 -92 0 -202 -24 -211
-46 -2 -6 7 -35 21 -63 14 -28 26 -55 26 -61 0 -6 7 -27 15 -46 l14 -35 44 25
c72 42 140 31 177 -29 34 -56 42 -167 38 -571 -3 -341 -5 -383 -22 -422 -10
-23 -28 -49 -39 -57 -20 -14 -20 -15 -2 -71 23 -72 11 -98 -56 -132 -70 -35
-160 -39 -261 -13 -106 29 -149 57 -179 118 l-24 48 0 555 c0 450 3 565 14
610 8 30 15 96 16 145 1 50 8 103 15 120 14 33 21 53 22 73 1 6 6 12 11 12 6
0 7 3 4 6 -3 4 -2 15 4 25 13 25 -7 24 -78 -1z"/>
<path d="M95 6498 c-3 -24 -4 -691 -3 -1483 l3 -1440 290 0 c160 -1 328 2 374
5 l83 5 -106 99 c-59 54 -120 118 -137 142 l-30 44 3 548 c2 431 6 552 16 570
11 19 11 29 1 55 -16 39 -26 1034 -11 1141 l8 65 -104 3 -105 3 -47 111 c-26
60 -57 124 -70 142 -23 30 -27 32 -91 32 l-68 0 -6 -42z"/>
<path d="M10110 5054 l0 -1485 298 2 c163 2 320 5 348 7 l51 4 18 76 c9 43 20
81 22 85 3 5 35 -21 72 -56 135 -130 307 -182 492 -147 80 15 239 98 239 124
0 3 -26 24 -57 47 -32 23 -72 55 -88 70 -17 16 -48 35 -70 42 -60 21 -63 35
-22 93 19 27 44 67 54 89 47 94 48 110 48 825 l0 675 -35 64 c-19 35 -50 75
-69 90 -19 14 -48 40 -65 58 -17 17 -56 41 -86 53 -30 12 -72 34 -92 51 -20
16 -39 25 -42 20 -3 -5 -37 -19 -75 -30 -82 -25 -147 -71 -178 -126 -24 -43
-28 -71 -13 -95 7 -12 12 -11 30 5 15 13 36 20 65 20 57 0 90 -31 104 -97 7
-32 11 -293 11 -744 0 -713 -3 -773 -39 -796 -12 -7 -15 -21 -13 -48 5 -48
-24 -72 -122 -101 -88 -27 -190 -22 -286 13 -54 20 -64 27 -60 43 2 11 5 548
7 1193 l3 1172 -80 0 -81 0 -26 58 c-104 235 -101 232 -195 232 l-68 0 0
-1486z"/>
<path d="M15123 6461 c-167 -180 -388 -308 -651 -376 l-87 -22 -3 -170 -2
-170 142 -6 c221 -10 288 -31 332 -106 28 -48 34 -286 35 -1253 l1 -788 263 1
c144 1 304 4 356 8 l95 6 -103 94 c-56 52 -118 116 -137 142 l-35 48 3 1193 3
1194 -30 20 c-29 19 -30 22 -36 119 -9 173 -36 185 -146 66z m-255 -457 c120
-9 81 -24 -62 -24 -127 0 -156 6 -142 29 6 9 30 8 204 -5z"/>
<path d="M46403 6388 c-56 -68 -149 -170 -207 -228 -95 -93 -108 -111 -127
-168 l-21 -63 -82 -41 -81 -40 -85 -135 c-103 -164 -159 -227 -315 -356 -221
-184 -356 -311 -492 -464 -125 -142 -247 -261 -385 -377 l-57 -47 -423 307
c-233 169 -472 345 -533 393 -130 102 -249 175 -322 198 l-53 17 0 42 c0 50
-16 65 -191 182 l-106 70 -59 -28 c-118 -57 -127 -69 -303 -418 -88 -174 -202
-391 -252 -482 -143 -259 -205 -390 -243 -520 l-14 -48 66 -45 c78 -51 337
-282 537 -479 l140 -137 65 -3 65 -3 3 -42 c3 -43 3 -43 43 -43 l39 0 0 -45
c0 -44 2 -46 76 -107 225 -186 337 -250 445 -256 87 -5 108 6 239 132 58 56
177 164 265 240 88 77 219 196 290 266 72 69 188 171 260 225 124 96 255 220
450 427 70 75 106 104 164 134 40 21 99 61 129 88 57 52 132 158 166 234 18
40 21 42 62 42 37 0 54 9 136 70 87 67 273 170 304 170 19 0 19 -6 -16 -309
-80 -704 -219 -1639 -370 -2491 -115 -651 -131 -746 -137 -826 -6 -81 -6 -82
31 -138 21 -30 52 -67 68 -81 38 -32 128 -78 186 -95 41 -13 42 -14 42 -55 0
-40 2 -43 68 -88 37 -25 179 -138 316 -251 137 -113 268 -215 291 -227 l41
-22 95 27 c94 27 334 136 376 172 13 10 31 44 41 74 21 60 32 67 112 69 59 2
103 23 289 138 100 63 178 119 218 159 91 91 139 127 228 173 66 34 425 277
458 310 13 13 -33 106 -83 170 -47 59 -499 398 -1140 856 -353 252 -824 611
-845 645 -3 6 1 45 9 88 25 126 43 277 101 862 66 664 94 921 141 1300 56 458
64 544 71 760 l6 205 -37 18 c-20 9 -40 17 -44 17 -4 0 -54 -55 -109 -122z"/>
<path d="M16713 6336 c-108 -25 -122 -44 -83 -108 11 -18 27 -56 36 -85 l16
-52 27 20 c65 48 171 28 213 -39 19 -31 22 -53 26 -179 l5 -143 353 0 c195 0
354 2 354 4 0 2 -44 41 -97 86 -54 46 -119 104 -144 130 -31 33 -59 52 -90 60
-53 15 -85 47 -99 99 -15 55 -62 116 -116 147 -101 59 -283 86 -401 60z"/>
<path d="M835 6264 c-16 -2 -58 -7 -93 -10 l-63 -6 39 -28 c51 -36 98 -94 119
-146 l17 -42 67 -4 c88 -7 139 -32 164 -83 18 -37 20 -60 20 -285 0 -214 -2
-251 -18 -293 -10 -26 -28 -54 -39 -61 l-21 -15 23 -56 c16 -40 39 -70 82
-109 33 -30 55 -57 49 -60 -15 -10 -192 -34 -341 -46 -74 -7 -141 -15 -148
-19 -8 -5 11 -23 57 -54 71 -49 114 -100 125 -151 l7 -28 202 5 c163 4 217 9
281 27 82 22 173 64 215 98 l25 19 -59 44 c-32 24 -74 58 -94 74 -20 17 -48
39 -63 48 -16 10 -28 24 -28 31 0 7 16 53 36 102 20 49 42 122 50 162 16 86
18 343 4 447 -13 89 -75 270 -108 314 -36 49 -104 88 -186 106 -69 16 -261 28
-321 19z"/>
<path d="M3743 5990 c-104 -37 -177 -83 -259 -165 -116 -114 -162 -222 -196
-453 -19 -126 -18 -1101 1 -1232 28 -195 79 -311 185 -415 109 -108 238 -161
455 -186 135 -16 375 -6 481 21 103 25 231 86 285 134 l40 36 -28 23 c-28 23
-127 76 -180 96 -20 8 -27 17 -27 38 0 48 26 139 47 169 36 50 81 148 97 210
36 136 47 829 16 989 -15 74 -56 166 -101 225 -19 25 -41 65 -48 90 -33 116
-97 173 -234 210 -63 17 -98 21 -152 17 -70 -6 -160 -31 -171 -48 -6 -10 42
-123 67 -156 13 -18 18 -20 22 -9 3 8 24 20 47 27 34 10 46 10 74 -4 62 -29
61 -15 61 -812 0 -396 -4 -737 -8 -758 -4 -21 -16 -46 -27 -57 -18 -18 -18
-19 5 -67 12 -26 32 -54 44 -61 39 -23 25 -40 -50 -63 -83 -25 -165 -22 -271
11 -114 35 -167 86 -187 181 -7 33 -11 302 -11 798 0 650 2 760 16 837 9 49
18 114 19 144 1 30 13 89 26 130 13 41 23 78 24 82 0 3 3 10 8 14 11 11 8 24
-5 23 -7 0 -37 -9 -65 -19z"/>
<path d="M7295 5987 c-111 -42 -177 -82 -252 -151 -60 -56 -81 -84 -118 -160
-84 -169 -88 -200 -92 -816 -6 -688 2 -773 88 -949 120 -244 397 -381 774
-381 245 0 421 50 553 157 l43 35 -21 23 c-12 13 -60 40 -106 62 -46 21 -86
44 -89 51 -9 24 36 187 72 256 19 38 43 93 53 122 l19 53 -52 3 -52 3 -27 55
c-14 30 -31 70 -36 90 -6 19 -17 58 -25 85 l-14 50 -91 3 c-88 3 -92 2 -96
-20 -3 -13 -7 -131 -8 -263 -3 -249 -5 -262 -49 -311 -18 -20 -18 -23 -3 -60
9 -21 29 -53 45 -70 35 -36 30 -43 -44 -68 -118 -39 -319 3 -409 87 -14 13
-37 44 -50 68 l-23 44 -3 780 c-2 564 0 801 9 855 6 41 11 98 11 125 -1 30 9
78 24 120 19 53 39 149 30 144 -1 0 -28 -10 -61 -22z"/>
<path d="M12380 5982 c-146 -53 -255 -138 -303 -236 -82 -168 -97 -498 -31
-694 34 -103 52 -129 144 -214 81 -75 177 -138 435 -284 208 -118 273 -162
293 -198 12 -23 17 -64 20 -155 5 -138 -5 -190 -42 -219 l-24 -19 19 -44 c11
-24 32 -57 47 -72 31 -33 27 -38 -52 -62 -68 -21 -148 -19 -236 6 -165 45
-241 127 -256 278 -6 55 -9 60 -34 66 -39 8 -51 25 -109 146 -27 59 -57 114
-66 123 -12 12 -35 16 -85 16 l-68 0 -4 -72 c-12 -177 24 -409 79 -509 61
-113 205 -211 385 -263 132 -38 242 -49 418 -43 216 8 353 47 488 139 23 16
42 33 42 39 0 5 -50 42 -111 82 l-111 72 6 61 c4 39 19 90 40 136 83 179 78
225 -53 448 -49 85 -118 137 -352 265 -223 122 -315 182 -378 244 -58 59 -80
103 -92 184 -12 85 -11 308 2 387 6 36 12 103 13 150 2 49 12 116 24 158 11
39 19 72 16 72 -3 0 0 9 6 20 6 11 9 20 8 19 -2 0 -37 -12 -78 -27z"/>
<path d="M1955 5868 c-3 -73 -5 -619 -3 -1213 l3 -1080 275 0 c151 -1 313 2
359 5 l83 5 -106 99 c-59 54 -120 118 -137 143 l-31 45 5 586 c5 626 11 713
53 800 76 155 236 126 290 -54 8 -26 21 -58 28 -70 l15 -21 58 28 c66 33 140
49 224 49 l59 0 0 34 c0 39 -14 46 -96 46 -38 0 -61 7 -96 29 -49 31 -67 58
-88 129 -7 23 -14 42 -16 42 -2 0 -51 -9 -110 -21 -94 -18 -118 -19 -191 -9
-147 19 -153 26 -153 175 l0 94 -67 3 -68 3 -25 51 c-14 28 -43 92 -65 142
l-40 92 -76 0 -77 0 -7 -132z"/>
<path d="M5065 5958 c15 -102 356 -2326 361 -2356 l6 -32 397 2 c218 1 434 5
479 8 l84 5 -136 145 c-75 80 -134 150 -132 156 2 6 7 42 11 80 4 38 23 118
41 177 30 96 39 154 79 520 59 536 71 637 100 847 30 210 30 196 5 203 -22 6
-23 8 -79 161 -23 60 -38 112 -35 117 3 5 -33 9 -80 9 -47 0 -86 -3 -86 -7 0
-5 -7 -71 -15 -148 -12 -123 -55 -638 -71 -860 -3 -44 -16 -208 -30 -365 -29
-340 -28 -324 -9 -316 19 7 80 -66 122 -147 61 -117 40 -145 -123 -163 -63 -6
-224 11 -256 27 -10 5 -27 40 -38 77 -20 63 -102 659 -179 1292 -42 338 -36
312 -73 331 -25 12 -47 42 -95 130 -35 63 -66 122 -69 132 -5 14 -19 17 -96
17 l-89 0 6 -42z"/>
<path d="M8770 4785 l0 -1216 278 3 c152 1 313 5 356 8 l79 5 -94 88 c-52 49
-111 110 -131 135 l-38 47 0 550 c0 517 8 721 30 806 21 79 94 149 155 149 63
0 133 -70 156 -154 6 -23 18 -53 25 -69 l15 -27 43 25 c52 30 158 55 239 55
l58 0 -3 33 c-3 32 -3 32 -68 37 -103 8 -179 67 -201 156 -6 24 -15 47 -19 49
-5 3 -51 -4 -104 -15 -97 -20 -154 -20 -261 1 -27 5 -56 14 -64 18 -16 10 -29
87 -30 179 l-1 62 -66 0 -65 0 -24 53 c-12 28 -39 89 -60 135 -20 45 -33 87
-30 92 4 6 -27 10 -84 10 l-91 0 0 -1215z"/>
<path d="M9656 5924 c-17 -17 -24 -29 -17 -33 6 -4 9 -17 6 -30 -7 -38 9 -14
26 40 9 27 16 49 15 49 -1 0 -14 -12 -30 -26z"/>
<path d="M2832 5918 c-6 -8 -6 -22 -1 -37 11 -29 16 -26 22 17 5 33 -3 41 -21
20z"/>
<path d="M7590 5783 c-60 -16 -80 -28 -80 -49 0 -7 16 -48 36 -90 28 -58 39
-73 45 -61 13 22 73 40 109 32 67 -15 76 -48 84 -317 l6 -158 -25 0 c-29 0
-30 -8 -10 -57 32 -75 20 -93 -95 -146 -41 -19 -85 -45 -97 -59 l-23 -24 20
-39 c11 -22 20 -45 20 -52 0 -10 25 -14 93 -15 118 -2 721 3 725 7 2 2 -4 29
-12 61 -11 43 -26 69 -59 103 -68 71 -97 115 -97 148 0 50 -29 200 -51 266
-11 34 -38 88 -59 120 -21 31 -46 83 -55 114 -34 118 -102 179 -237 214 -84
22 -162 23 -238 2z"/>
<path d="M12692 5782 c-29 -11 -58 -24 -63 -29 -5 -5 6 -43 28 -96 l36 -86 24
19 c35 27 81 34 128 18 51 -17 64 -50 65 -178 0 -52 3 -119 6 -147 l7 -53 314
0 314 0 -68 62 c-37 34 -101 96 -142 137 -40 42 -87 81 -104 87 -25 8 -32 18
-44 64 -35 136 -153 210 -348 217 -79 3 -111 0 -153 -15z"/>
<path d="M16948 5541 c-20 -4 -25 -10 -19 -20 7 -12 14 -10 36 8 29 22 28 23
-17 12z"/>
<path d="M18606 5469 c-3 -17 -6 -152 -6 -300 l0 -269 273 0 272 1 -112 108
c-116 113 -153 160 -153 198 0 25 -47 148 -86 225 -21 41 -23 52 -12 59 8 5
-24 9 -78 9 l-91 0 -7 -31z"/>
<path d="M18605 4138 c-3 -24 -5 -160 -3 -303 l3 -260 180 -1 c99 0 220 2 268
4 l88 3 -116 111 c-119 114 -145 148 -145 193 0 32 -73 208 -107 258 -25 37
-26 37 -94 37 l-68 0 -6 -42z"/>
<path d="M45237 3713 c-18 -33 -44 -62 -88 -95 -35 -25 -121 -95 -191 -155
-70 -59 -209 -178 -310 -263 -100 -85 -234 -204 -298 -263 -63 -60 -178 -157
-255 -215 -77 -59 -185 -150 -240 -203 -56 -54 -122 -108 -151 -122 -88 -44
-204 -140 -314 -257 -57 -62 -119 -119 -137 -126 -18 -8 -60 -14 -94 -14 l-62
0 -91 89 c-88 86 -147 124 -231 151 -56 18 -65 27 -65 69 0 32 -9 45 -77 112
-43 42 -141 131 -218 199 -77 68 -205 187 -285 265 -136 133 -267 244 -405
345 -73 54 -234 150 -251 150 -17 0 -115 -134 -192 -261 -35 -57 -101 -149
-148 -204 -91 -108 -136 -186 -155 -268 l-11 -53 -96 -50 c-166 -85 -286 -224
-312 -363 -18 -97 -14 -131 27 -191 20 -30 195 -212 388 -405 194 -192 406
-413 472 -490 253 -296 379 -397 540 -439 102 -27 107 -25 127 42 l18 58 68
11 c76 12 247 97 284 141 76 92 112 122 213 176 59 32 136 76 170 98 62 39 63
41 63 84 l0 44 44 0 c48 0 86 22 316 189 69 50 193 129 276 176 134 76 158 94
212 157 76 89 132 130 276 206 181 97 237 134 316 214 76 77 128 105 223 123
33 6 37 5 37 -13 0 -12 -20 -157 -46 -324 -45 -304 -75 -437 -133 -601 -30
-86 -39 -130 -101 -487 -36 -202 -68 -340 -117 -495 -19 -60 -37 -142 -40
-181 -5 -63 9 -212 24 -250 4 -12 78 -14 450 -14 540 0 535 -1 479 108 -39 77
-82 128 -143 173 -90 66 -183 150 -198 178 -37 74 -35 155 10 441 47 297 61
369 90 460 13 43 60 261 105 486 45 225 104 515 131 644 70 325 239 1159 239
1173 0 7 -15 21 -33 33 -17 11 -44 28 -59 38 l-27 18 -24 -49z"/>
<path d="M39730 1337 c-95 -75 -157 -144 -194 -217 l-32 -65 -70 -5 c-45 -3
-81 -12 -100 -24 -63 -41 -253 -195 -331 -267 -104 -98 -115 -106 -443 -294
-318 -183 -368 -215 -432 -282 -44 -45 -108 -138 -108 -155 0 -4 673 -8 1495
-8 1417 0 1495 1 1495 18 -1 39 -20 96 -44 131 -14 20 -178 189 -364 376 -186
187 -385 394 -442 460 -130 150 -338 372 -354 378 -6 3 -40 -18 -76 -46z"/>
<path d="M43791 1090 c-39 -4 -89 -20 -131 -40 -57 -27 -71 -39 -88 -76 -19
-38 -32 -49 -103 -85 -56 -28 -102 -60 -144 -103 -57 -57 -76 -68 -211 -126
-124 -53 -158 -72 -205 -116 -68 -64 -148 -116 -282 -185 -136 -69 -206 -118
-260 -180 -46 -52 -103 -146 -94 -155 11 -11 556 -15 787 -5 272 11 501 29
520 41 10 6 48 250 50 313 0 13 9 17 43 17 l43 0 78 333 c43 182 80 342 83
355 3 15 1 22 -8 21 -8 -1 -43 -5 -78 -9z"/>
</g>
</svg>
